<?xml version="1.0" standalone="no"?>
<!DOCTYPE svg PUBLIC "-//W3C//DTD SVG 20010904//EN"
 "http://www.w3.org/TR/2001/REC-SVG-20010904/DTD/svg10.dtd">
<svg version="1.0" xmlns="http://www.w3.org/2000/svg"
 width="800.000000pt" height="513.000000pt" viewBox="0 0 800.000000 513.000000"
 preserveAspectRatio="xMidYMid meet">
<metadata>
Created by potrace 1.16, written by Peter Selinger 2001-2019
</metadata>
<g transform="translate(0.000000,513.000000) scale(0.100000,-0.100000)"
fill="#000000" stroke="none">
<path d="M4794 4260 c-172 -36 -347 -203 -430 -410 -63 -155 -82 -346 -49
-488 90 -383 474 -443 748 -117 230 274 255 718 51 922 -80 80 -208 117 -320
93z"/>
<path d="M3368 4247 c-198 -56 -320 -301 -287 -576 38 -320 232 -581 470 -632
259 -56 464 189 446 530 -7 136 -27 211 -88 339 -52 108 -139 214 -225 273
-95 65 -223 92 -316 66z"/>
<path d="M2527 3299 c-197 -46 -310 -279 -263 -545 40 -234 185 -439 373 -531
74 -36 83 -38 173 -38 80 0 103 4 145 25 218 107 276 436 130 735 -123 254
-356 402 -558 354z"/>
<path d="M5581 3295 c-91 -26 -171 -75 -252 -155 -86 -86 -146 -181 -186 -295
-23 -69 -27 -96 -28 -195 0 -141 23 -213 93 -291 64 -72 128 -101 229 -107
204 -11 405 123 523 349 145 280 88 585 -129 682 -60 27 -177 32 -250 12z"/>
<path d="M3980 3010 c-173 -30 -330 -161 -496 -415 -49 -75 -117 -175 -150
-223 -80 -112 -261 -311 -352 -386 -125 -101 -172 -180 -192 -317 -55 -374
102 -673 395 -752 137 -37 374 -48 485 -21 36 8 120 33 187 55 252 81 333 86
534 35 223 -58 302 -70 454 -70 209 -1 343 44 469 156 244 216 274 578 71 846
-28 37 -86 92 -145 138 -123 93 -170 147 -401 453 -111 147 -269 311 -358 371
-167 112 -342 157 -501 130z"/>
</g>
</svg>
